<?xml version="1.0" encoding="utf-8"?>
<!-- Generator: Adobe Illustrator 19.2.1, SVG Export Plug-In . SVG Version: 6.00 Build 0)  -->
<svg version="1.1" id="layer" xmlns="http://www.w3.org/2000/svg" xmlns:xlink="http://www.w3.org/1999/xlink" x="0px" y="0px"
	 viewBox="0 0 652 652" style="enable-background:new 0 0 652 652;" xml:space="preserve">
<style type="text/css">
	.st0{fill:#FF9B00;}
	.st1{fill:#003366;}
</style>
<g>
	<path class="st0" d="M152.2,372.9c-13.8,10.7-31,16.9-49.7,16.9c-45.1,0-81.6-36.5-81.6-81.6c0-45.4,36.5-81.9,81.6-81.9
		s81.6,36.5,81.6,81.6c0,18.7-6.1,35.9-16.9,49.7l0,0c4,3.1,22.7,16.9,24.6,19.3c-0.6-6.8-3.1-28.5-3.1-28.5l68.4,51.3l0.3,1.5
		l-50.6-22.4l4.6,38.7L152.2,372.9L152.2,372.9z M132.6,357.6c-9.5-7.1-46.3-33.8-46.3-33.8h35.9c2.1,1.5,18.1,13.5,26.1,19.6l0,0
		c7.4-9.8,12-22.1,12-35.3c0-32.2-25.8-58.3-57.7-58.3S44.8,276,44.8,308.2s25.8,58.3,57.7,58.3C113.5,366.2,124,363.1,132.6,357.6
		L132.6,357.6z"/>
	<g>
		<g>
			<path class="st1" d="M288.2,297.1l-9.8-45.1h14.4l3.1,21.2c0.6,4.9,1.2,8.9,1.8,12h0.3c0.9-3.1,2.5-6.8,4.6-12l8.9-21.2h14.4
				L294,315.6h-16.3L288.2,297.1z"/>
			<path class="st1" d="M237.8,233.6l-4.9,26.1h24.9l4.9-26.1h13.8l-12.6,66.9h-13.8l5.2-28.2h-24.9l-5.2,28.2h-13.8l12.6-66.9
				C224,233.6,237.8,233.6,237.8,233.6z"/>
			<path class="st1" d="M375.9,300.5l5.5-29.2c1.2-7.4,1.8-15.3,2.5-19.3h12c-0.3,3.4-0.6,6.4-0.9,10.1h0.3c3.4-6.4,8.9-11,15.3-11
				c0.9,0,1.8,0,2.8,0l-2.8,13.5c-0.6,0-1.5,0-2.1,0c-8.9,0-13.5,8.3-15,17.8l-3.4,18.4h-14.1V300.5z"/>
			<path class="st1" d="M431.8,301.7c-12.3,0-20.6-8-20.6-19.9c0-16.6,11.7-30.7,28.8-30.7c12.9,0,20.6,8.9,20.6,19.9
				C460.6,288.2,448.4,301.7,431.8,301.7L431.8,301.7z M433.6,291c8,0,12.6-11.7,12.6-19.9c0-4.6-2.1-9.5-8-9.5
				c-8.3,0-12.9,12-12.9,19.9C425.4,287,428.4,291,433.6,291L433.6,291z"/>
			<path class="st1" d="M377.5,232.1l-9.5,50c-1.2,6.1-2.1,12.9-2.1,18.4h-12.6l0.6-8h-0.3c-4.3,6.4-10.1,9.2-16,9.2
				c-8.3,0-15-6.4-15-18.1c0-16.9,12.3-32.5,30.4-32.5c2.1,0,4.6,0.3,6.8,1.2l4-20.3C363.7,232.1,377.5,232.1,377.5,232.1z
				 M357.8,263.1c-1.2-0.9-3.4-1.8-5.8-1.8c-8.9,0-15,10.1-15,19.6c0,5.8,2.5,9.5,6.8,9.5c4.3,0,9.5-4.6,11.4-14.1L357.8,263.1z"/>
		</g>
		<g>
			<path class="st1" d="M425.7,334l-6.1,32.8c-1.2,6.1-1.8,11.4-2.5,15.7h-12.3l0.9-8h-0.3c-4.9,6.4-10.7,9.2-16.6,9.2
				c-7.7,0-12.6-4.3-12.6-13.5c0-2.8,0.3-5.5,0.9-8.9l5.2-27h13.8l-4.9,26.1c-0.3,2.1-0.6,4.6-0.6,6.4c0,3.4,1.2,5.8,5.2,5.8
				c4.9,0,10.1-5.8,12-15.7l4.3-22.7h13.5V334z"/>
			<path class="st1" d="M613.8,380.9c-3.1,1.5-8,2.5-13.8,2.5c-12,0-20.3-7.4-20.3-19.9c0-17.2,13.2-30.7,31.3-30.7
				c4.3,0,7.7,0.9,9.8,1.5l-3.4,10.4c-1.8-0.6-3.7-1.2-6.8-1.2c-10.4,0-16.9,8.9-16.9,18.1c0,6.8,4.3,10.4,9.8,10.4
				c4.3,0,7.4-0.9,9.8-2.1L613.8,380.9z"/>
			<g>
				<path class="st1" d="M475.1,380.3l12.6-66.6h13.8l-4.9,26.4h0.3c2.8-4.3,8.9-7.7,15-7.7c10.1,0,15,7.7,15,16.9
					C526,376.3,502.7,390.4,475.1,380.3z M490.1,372.3c12.6,5.5,21.8-8.9,21.8-20.3c0-4.9-2.5-8.6-6.4-8.6c-5.5,0-11,5.5-12.9,15.7
					L490.1,372.3z"/>
			</g>
			<path class="st1" d="M575.1,358.8c2.1-9.2,1.8-26.1-16.6-26.1c-17.8,0-28.2,15.7-28.2,30.4c0,12.3,6.8,20.3,20.9,20.3
				c5.5,0,12.6-1.2,17.8-3.7l-0.9-10.1c-3.7,2.5-23.9,8-24.6-6.1L575.1,358.8z M544.7,354.5c0.3-3.4,4-10.7,10.7-11.7
				c6.4-0.6,8.9,4.6,8,8.9L544.7,354.5z"/>
			<path class="st1" d="M334.2,383.7c-11.4,0-26.7-7.1-26.7-28.2c0-20.3,12.9-40.8,36.5-40.8c18.4,0,26.7,13.2,26.7,27.9
				c0,15.3-9.8,27.3-16,30.7l0,0c0.6,0,5.2-1.5,10.4-1.5c0,0,2.8,0,4.3,0l-2.1,10.7c-0.9,0-8,0-16.9,0
				C343.4,382.5,343.4,383.7,334.2,383.7z M336.3,372c12.3,0,19.9-16.6,19.9-29.5c0-7.7-3.1-16.3-13.8-16.3
				c-12.6,0-20.3,16.9-20.3,29.5C321.9,365,326.5,372,336.3,372L336.3,372z"/>
			<path class="st1" d="M472.9,313.7l-12.3,14.4h-9.8l9.2-14.4H472.9z M472.6,358.8c2.1-9.2,1.8-26.1-16.6-26.1
				c-17.8,0-28.2,15.7-28.2,30.4c0,12.3,6.8,20.3,20.9,20.3c5.5,0,12.6-1.2,17.8-3.7l-0.9-10.1c-3.7,2.5-23.9,8-24.6-6.1
				L472.6,358.8z M441.9,354.5c0.3-3.4,4-10.7,10.7-11.7c6.4-0.6,8.9,4.6,7.7,8.9L441.9,354.5z"/>
		</g>
	</g>
</g>
</svg>
